<?xml version="1.0" encoding="utf-8"?>
<svg id="master-artboard" viewBox="0 0 1000 800" version="1.1" xmlns="http://www.w3.org/2000/svg" x="0px" y="0px" style="enable-background:new 0 0 1400 980;" width="1000px" height="800px"><defs><linearGradient id="gradient-0" gradientUnits="userSpaceOnUse" x1="12" y1="2.9998748302459717" x2="12" y2="21.000126600265503">
                <stop offset="0" style="stop-color: #383bd6"/>
                <stop offset="1" style="stop-color: #1d1f8b"/>
              </linearGradient></defs><rect id="ee-background" x="0" y="0" width="1000" height="800" style="fill: white; fill-opacity: 0; pointer-events: none;"/>


<g transform="matrix(33.333333333333336, 0, 0, 33.333333333333336, 100.00004313492991, -9.559018963045673e-7)"><path d="M24 4.557c-.883.392-1.832.656-2.828.775 1.017-.609 1.798-1.574 2.165-2.724-.951.564-2.005.974-3.127 1.195-.897-.957-2.178-1.555-3.594-1.555-3.179 0-5.515 2.966-4.797 6.045-4.091-.205-7.719-2.165-10.148-5.144-1.29 2.213-.669 5.108 1.523 6.574-.806-.026-1.566-.247-2.229-.616-.054 2.281 1.581 4.415 3.949 4.89-.693.188-1.452.232-2.224.084.626 1.956 2.444 3.379 4.6 3.419-2.07 1.623-4.678 2.348-7.29 2.04 2.179 1.397 4.768 2.212 7.548 2.212 9.142 0 14.307-7.721 13.995-14.646.962-.695 1.797-1.562 2.457-2.549z" style="fill: rgb(65, 105, 225);"/></g></svg>