<?xml version="1.0" encoding="utf-8"?>
<svg id="master-artboard" viewBox="0 0 1000 800" version="1.1" xmlns="http://www.w3.org/2000/svg" x="0px" y="0px" style="enable-background:new 0 0 1400 980;" width="1000px" height="800px"><defs><linearGradient id="gradient-0" gradientUnits="userSpaceOnUse" x1="12" y1="2.9998748302459717" x2="12" y2="21.000126600265503">
                <stop offset="0" style="stop-color: #383bd6"/>
                <stop offset="1" style="stop-color: #1d1f8b"/>
              </linearGradient></defs><rect id="ee-background" x="0" y="0" width="1000" height="800" style="fill: white; fill-opacity: 0; pointer-events: none;"/>


<g transform="matrix(33.333333333333336, 0, 0, 33.333333333333336, 100.00004313492991, -9.559018963045673e-7)"><path d="M19.615 3.184c-3.604-.246-11.631-.245-15.23 0-3.897.266-4.356 2.62-4.385 8.816.029 6.185.484 8.549 4.385 8.816 3.6.245 11.626.246 15.23 0 3.897-.266 4.356-2.62 4.385-8.816-.029-6.185-.484-8.549-4.385-8.816zm-10.615 12.816v-8l8 3.993-8 4.007z" style="fill: rgb(65, 105, 225);"/></g></svg>